<svg width="169" height="168" viewBox="0 0 169 168" fill="none" xmlns="http://www.w3.org/2000/svg">
<rect x="0.5" width="168" height="168" rx="84" fill="url(#paint0_linear_1050_372)"/>
<path fill-rule="evenodd" clip-rule="evenodd" d="M36.083 40.5999H57.083H68.3122C68.3122 40.5999 99.6663 40.5999 98.6455 70.9332C97.6247 101.267 67.7288 100.683 67.7288 100.683H57.083V133.933H36.083V40.5999ZM68.3122 84.6415H57.083V57.079H68.3122C68.3122 57.079 76.9753 58.5374 76.9163 70.9332C76.8574 83.329 68.3122 84.6415 68.3122 84.6415Z" fill="#EED8B6"/>
<path d="M132.917 40.5999H104.333L98.0695 62.8412C98.5339 65.2648 98.7462 67.9526 98.6459 70.9332C98.2937 81.3969 94.5056 88.1816 89.6939 92.5805L84.2084 112.058L80.3706 98.2309C73.6849 100.799 67.7292 100.683 67.7292 100.683H65.1299L73.7084 133.933H93.8334L113.375 61.0165V133.933H132.917V40.5999Z" fill="#F17A54"/>
<defs>
<linearGradient id="paint0_linear_1050_372" x1="0.5" y1="168" x2="168.5" y2="0" gradientUnits="userSpaceOnUse">
<stop stop-color="#D71D1D"/>
<stop offset="1" stop-color="#E83636" stop-opacity="0.9"/>
</linearGradient>
</defs>
</svg>
